<?xml version="1.0" encoding="UTF-8" standalone="no"?><!DOCTYPE svg PUBLIC "-//W3C//DTD SVG 1.1//EN" "http://www.w3.org/Graphics/SVG/1.1/DTD/svg11.dtd"><svg width="100%" height="100%" viewBox="0 0 71 71" version="1.1" xmlns="http://www.w3.org/2000/svg" xmlns:xlink="http://www.w3.org/1999/xlink" xml:space="preserve" xmlns:serif="http://www.serif.com/" style="fill-rule:evenodd;clip-rule:evenodd;stroke-linejoin:round;stroke-miterlimit:1.41421;"><g><path d="M33.344,40.405c-0.551,-5.042 -3.385,-7.693 -7.782,-7.408c-0.007,4.523 3.328,7.769 7.782,7.408m2.916,-0.006c4.524,0.392 8.2,-3.328 7.656,-7.573c-4.771,0.354 -7.099,2.625 -7.656,7.573m7.744,-16.709c-4.467,-0.272 -8.155,3.473 -7.497,7.459c4.429,0.127 7.548,-2.916 7.497,-7.459m-9.186,1.461c3.347,-2.802 3.277,-8.205 -0.133,-10.508c-3.202,3.125 -3.138,7.889 0.133,10.508m-9.13,-1.518c-0.43,4.492 3.695,8.339 7.637,7.276c-0.532,-4.72 -3.233,-7.339 -7.637,-7.276m7.561,26.111c-0.076,-4.708 -3.436,-8.004 -7.63,-7.504c-0.26,4.385 3.264,7.852 7.63,7.504m10.755,-7.643c-4.783,0.107 -8.256,3.764 -7.516,7.763c4.644,-0.184 7.693,-3.265 7.516,-7.763m-10.572,10.692c-4.34,-0.183 -7.465,-1.841 -9.49,-5.352c-1.139,-1.968 -1.468,-4.106 -1.278,-6.365c0.082,-1.063 0.512,-1.759 1.759,-1.904c-1.088,-1.968 -1.746,-3.961 -1.867,-6.099c-0.107,-1.74 0.228,-2.405 1.513,-3.214c-0.488,-1.949 -1.133,-3.815 -1.392,-5.732c-0.386,-2.961 0.683,-3.929 3.625,-3.556c1.037,0.139 2.056,0.411 3.195,0.639c0.025,-0.494 0.069,-0.917 0.057,-1.329c-0.089,-3.315 1.392,-5.89 3.758,-8.041c1.208,-1.095 1.752,-1.101 2.936,-0.038c2.372,2.138 3.878,4.713 3.802,8.022c-0.013,0.412 -0.006,0.835 -0.006,1.399c1.176,-0.241 2.182,-0.551 3.207,-0.639c3.512,-0.291 3.834,0.613 3.695,3.498c-0.038,0.981 -0.247,1.968 -0.519,2.923c-0.253,0.88 -0.702,1.702 -1.088,2.613c0.424,0.354 1.057,0.639 1.316,1.139c0.272,0.525 0.24,1.227 0.272,1.866c0.12,2.265 -0.449,4.366 -1.809,6.447c1.79,0.266 1.917,1.544 1.91,2.847c-0.05,6.916 -5.105,10.642 -9.876,10.794c-0.215,0.006 -0.424,0.057 -0.708,0.101c-0.525,0.905 -0.184,1.917 -0.253,2.879c-0.07,0.873 -0.304,1.55 -1.291,1.651c-0.886,0.089 -1.398,-0.481 -1.455,-1.67c-0.051,-0.905 -0.013,-1.822 -0.013,-2.879" style="fill:#18241b;fill-rule:nonzero;"/><path d="M57.458,58.434l-45.78,-45.78c5.896,-6.182 14.222,-10.041 23.421,-10.041c17.861,0 32.393,14.533 32.393,32.393c0,9.205 -3.853,17.519 -10.034,23.428m-54.752,-23.428c0,-7.719 2.714,-14.817 7.244,-20.391l45.54,45.54c-5.567,4.53 -12.666,7.25 -20.391,7.25c-17.86,0 -32.393,-14.532 -32.393,-32.399m32.393,-35c-19.303,0 -34.999,15.703 -34.999,35c0,19.303 15.696,35.006 34.999,35.006c19.303,0 35.006,-15.703 35.006,-35.006c0,-19.297 -15.703,-35 -35.006,-35" style="fill:#18241b;fill-rule:nonzero;"/></g></svg>