<?xml version="1.0" encoding="UTF-8" standalone="no"?><!DOCTYPE svg PUBLIC "-//W3C//DTD SVG 1.1//EN" "http://www.w3.org/Graphics/SVG/1.1/DTD/svg11.dtd"><svg width="100%" height="100%" viewBox="0 0 71 70" version="1.1" xmlns="http://www.w3.org/2000/svg" xmlns:xlink="http://www.w3.org/1999/xlink" xml:space="preserve" xmlns:serif="http://www.serif.com/" style="fill-rule:evenodd;clip-rule:evenodd;stroke-linejoin:round;stroke-miterlimit:1.41421;"><g><path d="M58.179,58.406l-45.757,-45.757c5.9,-6.179 14.212,-10.034 23.412,-10.034c17.853,0 32.379,14.525 32.379,32.379c0,9.197 -3.855,17.512 -10.034,23.412m-54.724,-23.412c0,-7.719 2.716,-14.813 7.24,-20.384l45.522,45.522c-5.569,4.526 -12.664,7.242 -20.383,7.242c-17.854,0 -32.379,-14.526 -32.379,-32.38m32.379,-34.988c-19.292,0 -34.988,15.696 -34.988,34.988c0,19.293 15.696,34.987 34.988,34.987c19.292,0 34.986,-15.694 34.986,-34.987c0,-19.292 -15.695,-34.988 -34.986,-34.988" style="fill:#18241b;fill-rule:nonzero;"/><path d="M47.365,31.442c-1.733,-0.357 -2.851,-2.025 -3.442,-3.214c1.188,-0.302 2.412,-0.374 3.632,-0.199c0.503,0.072 0.969,-0.279 1.04,-0.778c0.069,-0.503 -0.28,-0.967 -0.778,-1.037c-1.345,-0.192 -2.692,-0.135 -4,0.156c0.479,-1.237 1.449,-3.048 3.158,-3.566c2.084,-0.627 4.986,0.736 8.43,3.953c-3.142,3.504 -5.913,5.122 -8.04,4.685m-10.1,6.171c-0.003,4.403 -0.009,18.441 -0.009,18.457c0,1.709 -1.391,3.099 -3.099,3.099c-1.708,0 -3.099,-1.39 -3.099,-3.099l0,-18.457l1.973,0l0,11.265c0,0.719 0.584,1.304 1.304,1.304c0.72,0 1.304,-0.585 1.304,-1.304l0,-11.265l1.626,0Zm-7.678,-18.164c-0.588,-2.333 1.062,-5.465 4.78,-9.088c3.72,3.623 5.371,6.755 4.782,9.088c-0.457,1.81 -2.195,2.939 -3.51,3.552l0,-5.625c0,-0.721 -0.584,-1.306 -1.304,-1.306c-0.72,0 -1.304,0.585 -1.304,1.306l0,5.595c-1.306,-0.62 -2.995,-1.742 -3.444,-3.522m28.781,7.177c0.021,-0.361 -0.102,-0.729 -0.38,-1.004c-4.559,-4.51 -8.518,-6.299 -11.769,-5.313c-4.165,1.26 -5.292,6.518 -5.337,6.742c-0.025,0.118 -0.026,0.234 -0.019,0.348c0,0.02 -0.003,0.038 -0.001,0.058c-0.894,0.47 -1.752,1.056 -2.557,1.76c-1.026,0.9 -1.92,1.951 -2.666,3.112l0,-6.506c1.685,-0.615 5.154,-2.273 6.035,-5.72c0.898,-3.519 -1.214,-7.678 -6.277,-12.36c-0.288,-0.268 -0.666,-0.373 -1.03,-0.333c-0.362,-0.04 -0.74,0.065 -1.03,0.333c-5.061,4.682 -7.171,8.841 -6.275,12.36c0.868,3.403 4.262,5.063 5.969,5.696l0,9.195l-8.264,0c-0.722,0 -1.305,0.583 -1.305,1.303c0,0.722 0.583,1.304 1.305,1.304l3.684,0l0,18.469c0,3.147 2.558,5.707 5.706,5.707c3.147,0 5.706,-2.56 5.706,-5.707l0.009,-18.469l3.552,0c0.72,0 1.303,-0.582 1.303,-1.304c0,-0.72 -0.583,-1.303 -1.303,-1.303l-7.159,0c0.785,-1.698 1.886,-3.202 3.252,-4.398c0.629,-0.548 1.29,-1.013 1.978,-1.396c0.794,1.652 2.45,4.192 5.329,4.792c0.411,0.085 0.826,0.128 1.247,0.128c3.013,0 6.374,-2.168 10.005,-6.462c0.254,-0.298 0.344,-0.675 0.291,-1.032" style="fill:#18241b;fill-rule:nonzero;"/></g></svg>