<?xml version="1.0" encoding="UTF-8" standalone="no"?><!DOCTYPE svg PUBLIC "-//W3C//DTD SVG 1.1//EN" "http://www.w3.org/Graphics/SVG/1.1/DTD/svg11.dtd"><svg width="100%" height="100%" viewBox="0 0 71 71" version="1.1" xmlns="http://www.w3.org/2000/svg" xmlns:xlink="http://www.w3.org/1999/xlink" xml:space="preserve" xmlns:serif="http://www.serif.com/" style="fill-rule:evenodd;clip-rule:evenodd;stroke-linejoin:round;stroke-miterlimit:1.41421;"><g><path d="M59.149,57.257l-45.768,-45.774c5.808,-5.498 13.641,-8.876 22.245,-8.876c17.861,0 32.393,14.532 32.393,32.393c0,8.617 -3.372,16.449 -8.87,22.257m-55.916,-22.257c0,-8.314 3.15,-15.906 8.326,-21.644l45.724,45.723c-5.739,5.169 -13.337,8.326 -21.657,8.326c-17.86,0 -32.393,-14.532 -32.393,-32.405m32.393,-35c-19.303,0 -35,15.709 -35,35c0,19.303 15.697,35.012 35,35.012c19.303,0 35.006,-15.709 35.006,-35.012c0,-19.291 -15.703,-35 -35.006,-35" style="fill:#18241b;fill-rule:nonzero;"/><path d="M54.058,24.758c-0.405,2.461 -1.67,4.435 -3.568,6.01c-1.588,1.31 -3.391,2.208 -5.334,2.797c-0.303,0.057 -0.594,0.139 -0.873,0.234c-0.013,0.006 -0.032,0.013 -0.044,0.013c-0.114,0.031 -0.215,0.069 -0.316,0.12c-4.474,1.79 -5.46,7.579 -7.757,11.875c-0.057,0.082 -0.114,0.171 -0.165,0.266c-0.721,1.487 -1.588,2.885 -2.745,4.074c-2.607,2.658 -5.726,3.771 -9.389,2.835c-3.183,-0.816 -5.207,-3.025 -6.384,-5.985c-1.265,-3.183 -1.057,-6.289 1.151,-9.003c1.993,-2.436 4.435,-4.353 7.377,-5.555c0.981,-0.399 1.955,-0.791 2.904,-1.24c0.614,-0.146 2.373,-1.437 2.373,-1.437c0.152,-0.164 0.19,-0.215 0.228,-0.253c1.999,-1.721 3.593,-3.777 4.871,-6.073c1.133,-2.025 2.55,-3.822 4.423,-5.207c2.834,-2.094 5.902,-2.664 9.142,-1.076c2.524,1.24 4.713,3.91 4.106,7.605m-2.79,-9.503c-3.904,-2.088 -7.725,-1.639 -11.331,0.772c-2.525,1.683 -4.328,4.043 -5.789,6.675c-0.987,1.765 -2.234,3.321 -3.714,4.701c-0.234,0.208 -0.481,0.398 -0.766,0.645c-0.19,0.266 -2.043,1.24 -2.043,1.24c-0.513,0.209 -1.019,0.436 -1.544,0.626c-3.524,1.291 -6.434,3.455 -8.921,6.232c-1.569,1.753 -2.474,3.815 -2.657,6.156c-0.285,3.486 0.753,6.58 3.024,9.212c2.898,3.347 6.548,4.764 10.939,3.834c4.619,-0.981 7.497,-4.037 9.49,-8.06c1.936,-3.588 3.031,-9.567 6.972,-11.294c0.374,-0.114 0.753,-0.234 1.127,-0.354c0.006,0 0.019,0 0.025,-0.006c0.132,-0.026 0.24,-0.064 0.342,-0.114c0.664,-0.215 1.328,-0.456 1.967,-0.753c3.202,-1.481 5.751,-3.689 7.175,-7.004c2.107,-4.909 0.411,-9.99 -4.296,-12.508" style="fill:#18241b;fill-rule:nonzero;"/><path d="M25.42,35.027c-0.468,0.266 -0.923,0.563 -1.353,0.892c-1.399,1.069 -2.518,2.379 -3.284,3.967c-0.405,0.829 0.12,1.708 1.113,1.708c0.367,-0.013 0.722,-0.234 0.931,-0.658c0.841,-1.689 2.1,-2.961 3.713,-3.91c0.608,-0.354 0.804,-1.018 0.487,-1.588c-0.316,-0.557 -0.993,-0.759 -1.607,-0.411" style="fill:#18241b;fill-rule:nonzero;"/><path d="M44.691,19.266c-2.208,0.715 -3.853,2.119 -4.935,4.169c-0.316,0.595 -0.101,1.259 0.45,1.556c0.563,0.31 1.227,0.133 1.556,-0.461c0.841,-1.538 2.062,-2.594 3.752,-3.126c0.481,-0.152 0.759,-0.576 0.759,-1.056c0.013,-0.817 -0.74,-1.354 -1.582,-1.082" style="fill:#18241b;fill-rule:nonzero;"/><path d="M25.099,42.157c-1.05,1.132 -1.575,2.48 -1.639,3.827c-0.019,1.044 0.405,1.576 1.114,1.588c0.721,0.019 1.145,-0.443 1.183,-1.328c0.044,-0.956 0.354,-1.797 1.006,-2.506c0.525,-0.569 0.544,-1.252 0.051,-1.721c-0.5,-0.48 -1.183,-0.43 -1.715,0.14" style="fill:#18241b;fill-rule:nonzero;"/><ellipse cx="20.788" cy="44.637" rx="1.319" ry="1.313" style="fill:#18241b;"/></g></svg>