<?xml version="1.0" encoding="UTF-8" standalone="no"?><!DOCTYPE svg PUBLIC "-//W3C//DTD SVG 1.1//EN" "http://www.w3.org/Graphics/SVG/1.1/DTD/svg11.dtd"><svg width="100%" height="100%" viewBox="0 0 71 71" version="1.1" xmlns="http://www.w3.org/2000/svg" xmlns:xlink="http://www.w3.org/1999/xlink" xml:space="preserve" xmlns:serif="http://www.serif.com/" style="fill-rule:evenodd;clip-rule:evenodd;stroke-linejoin:round;stroke-miterlimit:1.41421;"><g><path d="M35.153,2.613c-17.861,0 -32.393,14.533 -32.393,32.393c0,17.867 14.532,32.399 32.393,32.399c17.86,0 32.399,-14.532 32.399,-32.399c0,-17.86 -14.539,-32.393 -32.399,-32.393m0,67.399c-19.303,0 -35,-15.703 -35,-35.006c0,-19.297 15.697,-35 35,-35c19.303,0 35.006,15.703 35.006,35c0,19.303 -15.703,35.006 -35.006,35.006" style="fill:#18241b;fill-rule:nonzero;"/><path d="M21.702,34.951c-2.619,-4.245 -2.531,-10.831 0.253,-18.076c8.744,4.53 13.565,9.225 14.33,13.932c0.424,2.607 -0.443,5.308 -2.581,8.054c-1.114,-3.144 -2.98,-6.763 -6.03,-10.673c-0.215,-0.272 -0.518,-0.456 -0.86,-0.494c-0.348,-0.044 -0.69,0.051 -0.968,0.266c-0.272,0.215 -0.449,0.525 -0.487,0.86c-0.044,0.348 0.051,0.69 0.259,0.968c3.107,3.986 4.891,7.637 5.878,10.699c-4.568,-0.551 -7.852,-2.411 -9.794,-5.536m28.319,3.619c0.417,-0.538 0.316,-1.316 -0.222,-1.734c-0.259,-0.202 -0.576,-0.291 -0.905,-0.246c-0.329,0.038 -0.626,0.202 -0.822,0.461c-2.056,2.645 -4.112,4.79 -6.093,6.536c-0.626,-3.018 -0.177,-5.587 1.348,-7.63c2.214,-2.967 6.789,-4.726 12.565,-4.846c-0.804,7.326 -2.759,11.957 -5.814,13.767c-1.677,1.006 -3.79,1.139 -6.289,0.417c2.164,-1.936 4.245,-4.175 6.232,-6.725m8.161,-9.528c-0.234,-0.253 -0.544,-0.392 -0.898,-0.405c-7.238,-0.158 -13.046,1.968 -15.944,5.846c-2.151,2.885 -2.657,6.63 -1.48,10.857c-1.62,1.233 -3.164,2.208 -4.593,2.979c0.076,-1.594 -0.019,-3.903 -0.741,-6.757c1.247,-1.385 2.221,-2.79 2.911,-4.175c1.157,-2.316 1.55,-4.663 1.183,-6.966c-0.93,-5.7 -6.567,-11.16 -16.76,-16.241c-0.291,-0.152 -0.626,-0.171 -0.936,-0.05c-0.31,0.113 -0.544,0.341 -0.671,0.651c-3.549,8.44 -3.745,16.247 -0.557,21.41c2.436,3.935 6.738,6.264 12.458,6.738c0.753,3.398 0.506,5.776 0.36,6.681c-3.492,1.43 -5.934,1.563 -6.465,1.582c-0.69,0 -1.241,0.531 -1.247,1.221c-0.013,0.607 0.443,1.139 1.044,1.234l0.19,0.019l0.031,0c0.348,0 3.499,-0.057 7.966,-1.993c2.6,-1.127 5.118,-2.639 7.535,-4.518c1.481,0.576 2.891,0.918 4.207,1.038c0.317,0.032 0.646,0.044 0.956,0.044c1.702,0 3.252,-0.417 4.618,-1.227c3.961,-2.354 6.359,-8.086 7.143,-17.026c0.025,-0.341 -0.082,-0.683 -0.31,-0.942" style="fill:#18241b;fill-rule:nonzero;"/></g></svg>